<svg id="Capa_1" data-name="Capa 1" xmlns="http://www.w3.org/2000/svg" viewBox="0 0 2132.47 2111.61"><defs><style>.cls-1{fill:#2b343c;}.cls-2{fill:#151d25;}.cls-3{fill:#ed383b;}.cls-4{fill:#951f27;}.cls-5{fill:#a8b2bb;}</style></defs><path class="cls-1" d="M392.09,748.12c27.18-.42,54.36-1.2,81.54-1.2q586.65.06,1173.28-.1c16.62,0,26.63,5,35.61,18.7,42.7,65.32,76.32,134.7,98.73,209.6,4.64,15.49,1.55,18.36-14.23,18.34q-550.79-.81-1101.56-1c-16.45,0-19.63,5.3-19.14,20.1,1.06,32.51,1.49,65.11.12,97.58-.67,15.86,5,18.11,19,18.09,217.13-.33,434.26.12,651.38-.5,18.38,0,23.08,4.56,22.77,22.83q-1.65,98.57.23,197.18c.31,17.66-3.47,23.14-22.28,23.07-217.12-.7-434.25-.24-651.38-.7-15,0-20.64,2.73-19.87,19.07,1.47,31.14,1.23,62.42.2,93.6-.47,14.12,4.11,17.66,17.78,17.62,124.83-.29,249.66.21,374.49.24q359.55.06,719.11-.51c16.71,0,18,3.78,14,18.86-19.66,74.64-52.76,142.66-96.72,205.84-6.72,9.65-14.85,9.17-24.13,9.17q-260.94,0-521.9.13-225.09.11-450.19.26c-3.93,0-7.86-.63-11.79-1-15.6-23.85-27.86-49.55-41.49-74.5-50.94-93.31-89.55-190.83-106.66-296.38-4-24.68-6-50-26.87-70.21a210.68,210.68,0,0,1-29-34.75c-26.89-40.87-47.55-85.08-65.81-130-39.64-97.43-52.32-198.3-28.8-302.15C374.55,799.11,381,772.91,392.09,748.12Z" transform="translate(-207.82 -145.88)"/><path class="cls-2" d="M1898.27,2051.35c-111.47,83.36-234.65,141.06-371.67,167.3-88.08,16.87-176.61,19.72-264.51-1.47-113.34-27.33-204.32-91.18-282-176a801.86,801.86,0,0,1-126.81-185.35c2.51-5.18,6.26-3.77,9.21-3.78q269.85-.11,539.71,0c3.3,0,6.6.49,9.9.75,1.27,3,1.74,7.62,3.93,8.65,24.06,11.37,39,35,63.06,46.35,13.06,6.17,26.16,12.54,38.31,20.3,34.11,21.78,70.46,39,107.76,54.34,83.5,34.25,170.71,52.92,260.35,61.06C1891.36,2044.05,1895.72,2046,1898.27,2051.35Z" transform="translate(-207.82 -145.88)"/><path class="cls-3" d="M1419.21,174.4c69.88-.22,136.4,16.8,201.77,39.52,96.51,33.56,186.79,79.33,268.36,141,71.41,54,140.43,111,197.5,180.68,18.74,22.89,39.69,44.16,54.54,70.11-2,10.12-10.18,6.78-16,6.78q-288.9.25-577.78.22a38.51,38.51,0,0,1-22.23-6.64c-67.67-44.09-120.7-100.69-152.67-175.77-28.6-67.13-38.09-136.09-19.68-207.51C1365.55,174,1369.29,171.76,1419.21,174.4Z" transform="translate(-207.82 -145.88)"/><path class="cls-2" d="M392.09,748.12c-11.07,24.79-17.54,51-23.5,77.32-23.52,103.85-10.84,204.72,28.8,302.15,18.26,44.89,38.92,89.1,65.81,130a210.68,210.68,0,0,0,29,34.75c20.86,20.19,22.87,45.53,26.87,70.21,17.11,105.55,55.72,203.07,106.66,296.38,13.63,24.95,25.89,50.65,41.49,74.5q-153.35.13-306.69.43c-7.9,0-11.62-3.71-15.16-9.92-58.42-102.37-100.55-210.74-121.08-327.12-30.9-175.08-17.3-347.37,32.39-517.39,12.09-41.37,30.59-80.27,46.26-120.26,3.46-8.83,8-12.28,17.52-11.95C344.31,748,368.21,747.87,392.09,748.12Z" transform="translate(-207.82 -145.88)"/><path class="cls-4" d="M1419.21,174.4c-49.92-2.64-53.66-.36-66.23,48.41-18.41,71.42-8.92,140.38,19.68,207.51,32,75.08,85,131.68,152.67,175.77a38.51,38.51,0,0,0,22.23,6.64q288.89-.16,577.78-.22c5.86,0,14.07,3.34,16-6.78,24.69,29.24,42.17,63.29,63.14,95,1.73,2.61,2.81,6-.35,8.83l.5.25c-55.17-37.8-117.25-57.36-182.37-68.76-36.07-6.32-72.48-8-109.06-8q-528.93.09-1057.87-.06C831,633,831,633,839.21,609.29c42.57-121.86,114.95-223.23,211.09-308.54,75.94-67.39,163.41-110.14,264.11-124C1349,172,1384.13,168.25,1419.21,174.4Z" transform="translate(-207.82 -145.88)"/><path class="cls-1" d="M1886.26,1545.41c14.49-50.82,28.34-101.78,37.72-153.87,6.6-36.6,6.84-37.15,43.16-37.44,173.44-1.4,306.19-122.69,353.67-269,3.43-10.58,6.78-21.18,11.44-35.77,6.92,23,4.8,42.85,5.94,62.14,6.65,112-1.27,222.45-42,328.31-39,101.3-99.68,185.11-197.38,237.92-2.83,1.53-6,2.37-9,3.53-2.18-2.37-3.92-5.77-6.62-7-36.31-16-72.14-32.77-105.24-55C1945.2,1597.23,1911.84,1576.19,1886.26,1545.41Z" transform="translate(-207.82 -145.88)"/><path class="cls-1" d="M1898.27,2051.35c-2.55-5.35-6.91-7.3-12.72-7.82-89.64-8.14-176.85-26.81-260.35-61.06-37.3-15.31-73.65-32.56-107.76-54.34-12.15-7.76-25.25-14.13-38.31-20.3-24.06-11.36-39-35-63.06-46.35-2.19-1-2.66-5.68-3.93-8.65,95.45-.22,190.91-.25,286.36-.74,72.85-.38,145.92,4.24,218.4-6.66,96-14.45,182.51-52.08,260.72-109.27,3.7-2.71,7.64-5.1,11.47-7.63l-.29-.47c-2.93,19.6-16.79,33.34-27.12,48.66C2089.71,1883.37,2002.68,1975.74,1898.27,2051.35Z" transform="translate(-207.82 -145.88)"/><path class="cls-1" d="M435.54,547.6a1028.74,1028.74,0,0,1,209.8-199.38c128.9-92,270.67-154.84,426.84-183.44,38.39-7,77.27-11.44,115.92-17.06q.53,3.53,1.06,7c-185.35,56.77-320.25,175-415.13,341.6-16.62,29.18-31.36,59.45-47,89.22-13.32-13.36-31.81-15.09-48.39-20.16-43.68-13.33-89.45-12.07-134.4-15.78C508.19,546.66,471.75,551.11,435.54,547.6Z" transform="translate(-207.82 -145.88)"/><path class="cls-3" d="M2069.73,757.07c105.29,14.38,217.48,120.34,207.07,254.54-3.86,10.61-11.86,16.42-22,20.76-47,20.09-95.72,29.91-146.93,26.59-78.66-5.1-161.29-55.84-175.64-145.37-10.65-66.52,20.07-146.47,107-154.74C2049.43,757.88,2060.16,765.61,2069.73,757.07Z" transform="translate(-207.82 -145.88)"/><path class="cls-4" d="M2069.73,757.07c-9.57,8.54-20.3.81-30.52,1.78-86.92,8.27-117.64,88.22-107,154.74,14.35,89.53,97,140.27,175.64,145.37,51.21,3.32,99.94-6.5,146.93-26.59,10.15-4.34,18.15-10.15,22-20.76-1.28,90.07-54.66,165-139.05,199.18-48,19.46-98.19,20.91-148.79,19.56-17.06-.45-39.12,7.44-49.82-3.07s-3.66-32.77-4.19-49.84c-4.54-146.5-44-282.65-119.64-408.27-3.62-6-6.67-12.37-11.52-21.45,15.79,0,28.76-.25,41.73,0,65.63,1.5,131.4-3.57,196.88,4.15C2051.58,753,2060.62,755.32,2069.73,757.07Z" transform="translate(-207.82 -145.88)"/><path class="cls-2" d="M954.4,2133.71c76.55,55.25,158.36,99.93,250.5,123.78-322.55-7.78-571.6-156-774.34-404.54h41.09c-.7,8.22,3.53,13.52,9.85,18.16,52.84,38.81,104.15,79.49,159.77,114.76C729,2041.49,818.68,2092.7,916.7,2127.74,928,2131.79,940.49,2140.89,954.4,2133.71Z" transform="translate(-207.82 -145.88)"/><path class="cls-1" d="M954.4,2133.71c-13.91,7.18-26.36-1.92-37.7-6-98-35-187.69-86.25-275.43-141.87-55.62-35.27-106.93-75.95-159.77-114.76-6.32-4.64-10.55-9.94-9.85-18.16q124.23-.57,248.45-1.28c7-.05,10.77,2.72,13.84,8.59C789.4,1965.93,863.6,2056.51,954.4,2133.71Z" transform="translate(-207.82 -145.88)"/><path class="cls-2" d="M1886.26,1545.41c25.58,30.78,58.94,51.82,91.64,73.8,33.1,22.25,68.93,39,105.24,55,2.7,1.19,4.44,4.59,6.62,7-62.24,37.51-130.94,51.5-202.38,54.52-28.83,1.22-57.76.2-91.12.2C1836.75,1674,1863.08,1610.44,1886.26,1545.41Z" transform="translate(-207.82 -145.88)"/><path class="cls-2" d="M435.54,547.6c36.21,3.51,72.65-.94,108.73,2,45,3.71,90.72,2.45,134.4,15.78,16.58,5.07,35.07,6.8,48.39,20.16a7.94,7.94,0,0,1-.21,2c-15.9,44.85-15.9,44.89-62.68,44.9-96.19,0-192.38,0-292.17,0A495.76,495.76,0,0,1,435.54,547.6Z" transform="translate(-207.82 -145.88)"/><path class="cls-5" d="M1189.16,154.76q-.54-3.51-1.06-7c9.75-3.1,19.56-1.32,35.2-1.45C1208.87,153,1199.71,156.53,1189.16,154.76Z" transform="translate(-207.82 -145.88)"/><path class="cls-4" d="M2204.17,709.56l.85-.39s-.39.62-.37.63Z" transform="translate(-207.82 -145.88)"/><path class="cls-1" d="M2189.09,1728.53l2.26-2.22.12,2.46c-.88-.23-1.77-.45-2.67-.7Z" transform="translate(-207.82 -145.88)"/></svg>